# xmcd CD database file
#
# Track frame offsets:
#	150
#	24113
#	43277
#	63807
#	83442
#	99873
#	106205
#	122803
#	145919
#	170027
#	189477
#	205844
#	224997
#
# Disc length: 3200 seconds
#
# Revision: 4
# Processed by: cddbd v1.5.2PL0 Copyright (c) Steve Scherf et al.
# Submitted via: CDex 1.70beta2
#
DISCID=b30c7e0d
DTITLE=Rockbitch - Motor Driven Bimbo
DYEAR=1999
DGENRE=Rock
TTITLE0=SNAFU
TTITLE1=The Church
TTITLE2=Eveline
TTITLE3=Baby
TTITLE4=Sex and The Devil
TTITLE5=Open Letter
TTITLE6=Nympho
TTITLE7=Innocence
TTITLE8=Lucifer
TTITLE9=Essex Girl
TTITLE10=Tell Me
TTITLE11=Bride Of Christ
TTITLE12=Diva
EXTD=YEAR: 1999
EXTT0=
EXTT1=
EXTT2=
EXTT3=
EXTT4=
EXTT5=
EXTT6=
EXTT7=
EXTT8=
EXTT9=
EXTT10=
EXTT11=
EXTT12=
PLAYORDER=
